<svg width="187" height="184" viewBox="0 0 187 184" fill="none" xmlns="http://www.w3.org/2000/svg">
<rect y="19" width="178" height="158" rx="17" fill="#e9f0faff"/>
<path d="M0 36C0 26.6112 7.61116 19 17 19H161C170.389 19 178 26.6112 178 36V76C178 85.3888 170.389 93 161 93H17C7.61116 93 0 85.3888 0 76V36Z" fill="#8FB9EF"/>
<rect y="58" width="178" height="54" fill="#e9f0faff"/>
<circle cx="151" cy="148" r="36" fill="#6DABF0"/>
<path d="M163.734 136.585C164.149 136.209 164.681 136 165.241 136C166.663 136 167.738 137.302 167.458 138.697C167.289 139.536 167.119 140.381 166.947 141.234C166.846 141.736 166.618 142.204 166.285 142.593C165.164 143.903 164.039 145.217 162.885 146.566C161.262 148.177 159.639 149.789 157.968 151.45C156.354 153.08 154.741 154.711 153.079 156.391C152.01 157.27 150.941 158.148 149.855 159.042C149.122 159.645 148.147 159.865 147.226 159.636C146.359 159.421 145.488 159.204 144.605 158.985C144.118 158.864 143.668 158.622 143.298 158.282C142.532 157.576 141.761 156.868 140.972 156.142C140.009 155.064 139.046 153.986 138.054 152.875C137.075 151.8 136.097 150.725 135.089 149.617C134.627 148.994 134.165 148.371 133.696 147.739C133.269 147.163 133.199 146.404 133.521 145.764C133.92 144.971 134.819 144.552 135.68 144.766C136.62 145 137.1 145.119 138.385 145.439C138.812 145.545 139.212 145.744 139.553 146.021C140.874 147.094 142.2 148.17 143.56 149.275C144.151 149.806 144.742 150.337 145.336 150.871C146.535 151.948 148.371 151.886 149.494 150.729C150.008 150.199 150.526 149.666 151.052 149.125C152.587 147.566 154.123 146.007 155.705 144.4C157.231 142.841 158.757 141.282 160.33 139.675C162.098 138.07 162.306 137.881 163.734 136.585Z" fill="#EBF2FB"/>
<rect x="23" y="76" width="31" height="31" rx="2" fill="#C7DBF0"/>
<rect x="23" y="124" width="31" height="32" rx="2" fill="#C7DBF0"/>
<rect x="74" y="124" width="31" height="32" rx="2" fill="#C7DBF0"/>
<rect x="74" y="76" width="31" height="31" rx="2" fill="#C7DBF0"/>
<rect x="126" y="76" width="30" height="31" rx="2" fill="#C7DBF0"/>
<rect x="28" y="3" width="17" height="36" rx="7" fill="#3181DB"/>
<rect x="79" y="3" width="18" height="36" rx="7" fill="#3181DB"/>
<rect x="132" y="3" width="18" height="36" rx="7" fill="#3181DB"/>
</svg>
