<svg width="454" height="445" viewBox="0 0 454 445" fill="none" xmlns="http://www.w3.org/2000/svg">
<g clip-path="url(#clip0_3_161)">
<path d="M284 388.98C284 388.435 284.436 387.991 284.98 387.983C292.49 387.88 299.059 388.376 306.625 389C308.417 389.143 308.417 389.143 310.246 389.289C313.005 389.51 315.764 389.734 318.522 389.961C318.792 389.983 319 390.205 319 390.476C319 390.763 318.766 391 318.479 391C307.125 391 296.657 391 285 391C284.448 391 284 390.552 284 390C284 389.661 284 389.322 284 388.98Z" fill="#3484DD"/>
<path d="M292.5 198.5C292.5 198.5 299.339 198.854 300.812 198.937C326.361 201.103 357.282 209.165 375 229C377.485 232.143 379.252 235.398 381 239C381.318 239.653 381.635 240.306 381.962 240.979C389.257 256.275 393.75 271.306 398.586 287.5C398.586 287.5 402.5 306 402 310C400.68 310 399.36 311 398 311C398.193 311.825 398.387 312.65 398.586 313.5C401.693 327.283 403.202 340.598 403.351 354.736C403.367 356.102 403.389 357.469 403.417 358.835C403.63 370.274 402.315 379.952 394.562 388.758C393 390 393 390 389 391C408.14 391.33 427.28 391.66 447 392C447 392.66 447 393.32 447 394C395.108 394.033 343.218 393.954 291.327 393.806C281.192 393.778 271.057 393.75 260.922 393.723C242.867 393.673 224.813 393.623 206.758 393.573C189.283 393.524 171.808 393.475 154.333 393.427C152.701 393.423 152.701 393.423 151.036 393.418C145.573 393.403 140.111 393.388 134.648 393.373C89.7656 393.25 44.8828 393.126 0 393C0.33 392.34 0.66 391.68 1 391C18.82 390.505 18.82 390.505 37 390C36.01 388.02 36.01 388.02 35 386C34.6267 384.667 34.3037 383.32 34.0261 381.964C33.78 380.783 33.78 380.783 33.5289 379.578C33.3582 378.731 33.1876 377.884 33.0117 377.012C32.8283 376.125 32.6449 375.239 32.456 374.325C31.8615 371.447 31.2746 368.567 30.6875 365.688C30.0757 362.718 29.4619 359.748 28.848 356.779C28.4454 354.831 28.0434 352.883 27.6421 350.934C26.2446 344.154 24.805 337.385 23.3125 330.625C21.981 324.58 20.6872 318.528 19.4375 312.465C19.3026 311.81 19.1676 311.156 19.0286 310.481C18.3672 307.268 17.709 304.055 17.054 300.84C15.5663 293.57 15.5663 293.57 13.8477 286.352C12.9939 282.976 12.5396 280.453 13 277C14.9727 273.863 16.011 272.226 19.6942 271.385C21.2484 271.392 21.2484 271.392 22.8339 271.399C24.0258 271.392 25.2177 271.385 26.4457 271.378C27.7498 271.396 29.0539 271.414 30.3975 271.432C31.7872 271.434 33.1769 271.433 34.5667 271.43C38.3373 271.429 42.1071 271.458 45.8776 271.493C49.8187 271.524 53.7598 271.527 57.701 271.533C65.1632 271.549 72.625 271.59 80.087 271.64C88.5827 271.696 97.0783 271.723 105.574 271.748C123.05 271.801 140.525 271.889 158 272C158.198 271.191 158.396 270.383 158.6 269.55C158.863 268.481 159.127 267.412 159.399 266.311C159.659 265.255 159.919 264.199 160.186 263.111C161.322 258.77 162.747 254.577 164.312 250.375C164.617 249.557 164.921 248.74 165.234 247.897C167.553 241.833 170.187 236.285 174 231C174.619 230.076 174.619 230.076 175.25 229.133C185.112 215.925 203.21 211.837 218.438 208.687C219.266 208.516 220.094 208.344 220.948 208.167C226.056 207.181 230.799 206.839 236 207L292.5 198.5Z" fill="#3484DD"/>
<path d="M395.752 312.685C396.516 312.861 397.081 313.497 397.207 314.271C397.62 316.805 398.03 319.34 398.438 321.875C398.572 322.697 398.707 323.52 398.846 324.367C400.589 335.25 401.23 345.912 401.312 356.938C401.342 358.231 401.371 359.525 401.4 360.857C401.461 370.073 400.702 378.485 394.658 385.739C394.514 385.912 394.337 386.059 394.142 386.17C385.279 391.212 375.769 391.514 365.75 391.438C364.737 391.435 364.737 391.435 363.703 391.432C347.642 391.364 331.773 389.569 315.834 387.751C308.587 386.933 301.334 386.304 294.062 385.75C292.499 385.63 292.499 385.63 290.905 385.508C289.222 385.382 287.54 385.257 285.857 385.134C284.811 385.058 284 384.187 284 383.138C284 383.118 284 383.097 284 383.077C284 381.943 283.059 381.036 281.925 381.078C281.915 381.079 281.906 381.079 281.896 381.079C257.758 381.87 257.758 381.87 249.332 377.094C246.502 375.766 244.449 375.69 241.453 375.958C241.155 375.984 240.867 376.08 240.611 376.235C239.048 377.18 237.486 378.128 235.945 379.109C233.317 380.313 230.602 380.386 227.819 380.217C226.442 380.134 225.59 378.672 226.333 377.509C227.958 374.961 230.003 373.231 232.717 371.21C232.904 371.071 233.115 370.966 233.338 370.899C235.155 370.36 235.373 370.303 236.636 370.068C236.864 370.025 237.105 369.789 237.209 369.581C237.51 368.981 236.878 368.413 236.253 368.657C232.021 370.303 228.591 372.127 225.375 375.688C223.017 378.272 221.563 379.461 218.062 379.938C217.501 379.949 217.148 379.956 216.847 379.962C215.804 379.984 214.899 379.198 214.902 378.155C214.911 374.853 216.079 372.98 218.5 370C221.996 365.848 225.602 362.255 230.644 360.146C230.878 360.048 231.13 360 231.384 360C232.309 360 233.235 360 234.177 360C234.631 360 235 359.638 235 359.184C235 358.612 234.432 358.208 233.895 358.406C232.699 358.848 231.505 359.297 230.312 359.75C229.007 360.237 229.007 360.237 227.676 360.734C220.831 363.972 217.832 369.056 213.965 375.32C212.15 377.795 211.148 378.904 208.461 379.845C208.16 379.951 207.834 379.973 207.52 379.92C206.743 379.79 206.281 379.708 205.874 379.609C204.811 379.351 204.279 378.167 204.675 377.148C207.982 368.64 213.887 360.781 221.735 356.155C221.91 356.051 222.101 355.977 222.3 355.933C225.026 355.328 225.398 355.253 227.217 355.075C227.66 355.032 228 354.667 228 354.221C228 353.627 227.413 353.204 226.857 353.414C215.783 357.586 209.46 364.855 204.062 375.625C203.683 376.473 203.577 376.709 203.347 377.225C203.136 377.696 202.674 378 202.158 378C201.5 378 200.933 377.51 200.873 376.854C200.319 370.699 202.185 367.541 206.152 362.383C206.762 361.596 207.372 360.81 208 360C208.752 358.772 209.502 357.543 210.25 356.313C214.678 350.104 222.726 345.812 230 344C237.706 343.065 244.864 345.194 252.25 347.188C253.388 347.479 254.526 347.771 255.699 348.072C261.503 349.604 266.876 351.356 272.359 353.801C280.036 356.815 287.037 356.08 295 355C295.789 354.898 296.577 354.797 297.389 354.692C303.46 353.899 309.511 352.991 315.562 352.063C318.217 351.662 320.871 351.262 323.525 350.864C325.246 350.605 326.967 350.346 328.688 350.086C335.124 349.117 341.568 348.231 348.022 347.391C349.782 347.16 351.541 346.919 353.296 346.658C358.555 345.896 363.767 345.904 369.056 345.985C369.575 345.993 370 345.582 370 345.063C370 344.503 369.508 344.064 368.952 344.135C367.983 344.26 367.641 344.304 366.125 344.5C361.597 345.011 357.123 345.069 352.589 345.021C351.658 345.011 350.861 344.357 350.664 343.447C350.107 340.861 349.553 338.275 349 335.688C348.809 334.806 348.618 333.925 348.422 333.018C348.241 332.17 348.061 331.322 347.875 330.449C347.707 329.669 347.54 328.889 347.367 328.085C347.064 326.363 347.011 326.063 347.002 324.32C346.998 323.52 347.476 322.792 348.219 322.496C351.402 321.225 354.538 320.335 357.938 319.598C359.081 319.347 360.224 319.096 361.402 318.838C362.59 318.582 363.777 318.326 365 318.063C367.333 317.554 369.667 317.045 372 316.535C373.154 316.287 374.307 316.038 375.496 315.782C377.87 315.252 380.237 314.692 382.598 314.105C383.741 313.822 384.884 313.538 386.062 313.246C387.085 312.984 388.107 312.721 389.16 312.451C391.665 312.053 393.502 312.166 395.752 312.685Z" fill="#EDB58D"/>
<path d="M332.982 256.508C332.992 256.225 333.221 256 333.504 256C333.781 256 334.015 256.214 334.034 256.491C334.098 257.403 334.162 258.32 334.228 259.259C335.651 279.491 337.176 299.657 339.715 319.779C339.865 320.963 341.015 321.749 342.174 321.463C342.59 321.361 343.01 321.257 343.434 321.152C355.02 318.327 366.65 315.738 378.312 313.25C379.03 313.096 379.748 312.941 380.488 312.782C394.097 309.862 394.794 309.713 400.952 309.103C401.511 309.048 402 309.479 402 310.041C402 310.567 401.574 311 401.049 311C400.777 311 400.504 311 400.231 311C399.091 311 398.249 312.062 398.509 313.172C398.535 313.281 398.56 313.39 398.586 313.5C401.693 327.283 403.202 340.598 403.351 354.736C403.367 356.102 403.389 357.469 403.417 358.835C403.63 370.251 402.32 379.913 394.609 388.704C394.578 388.74 394.545 388.771 394.509 388.8C393.784 389.376 394.077 391.088 395.003 391.104C411.826 391.394 428.696 391.684 446.007 391.983C446.558 391.992 447 392.434 447 392.986C447 393.542 446.55 394.002 445.993 394.003C400.124 394.154 354.258 393.942 308.39 393.61C303.223 393.573 298.055 393.538 292.888 393.503C262.79 393.299 232.699 393.052 202.613 392.144C200.863 392.092 200.179 390.037 201.923 389.893C202.323 389.86 202.791 389.831 203.354 389.797C204.821 389.809 206.288 389.833 207.754 389.865C208.955 389.879 208.955 389.879 210.179 389.893C212.83 389.927 215.482 389.975 218.133 390.023C219.968 390.05 221.804 390.075 223.64 390.099C228.476 390.166 233.313 390.245 238.149 390.326C243.083 390.407 248.016 390.477 252.949 390.547C261.955 390.677 270.961 390.818 279.967 390.966C281.084 390.985 282 390.084 282 388.967C282 387.574 282 386.175 282 384.759C282 383.789 281.211 383.004 280.241 383.008C263.488 383.072 246.75 382.844 230 382.5C227.556 382.452 225.112 382.403 222.668 382.355C216.779 382.239 203 381 205.5 380L208.929 379.143C209.302 379.05 209.64 378.851 209.899 378.567C210.981 377.38 213.975 374.015 215.25 371.75C219.111 365.414 223.835 361.103 230.627 358.159C230.872 358.053 231.137 358 231.404 358C232.212 358 233.021 358 233.84 358C234.481 358 235 358.511 235 359.152C235 359.653 234.677 360.106 234.201 360.262C233.149 360.606 232.884 360.693 231.375 361.188C224.53 363.783 219.697 368.529 216.106 374.814C216.035 374.937 215.978 375.07 215.936 375.205C215.6 376.287 215.406 376.921 215.283 377.458C214.992 378.726 216.244 379.783 217.496 379.43C221.627 378.266 223.946 376.306 227.301 372.688C229.862 370.144 232.404 368.641 235.635 368.165C236.79 367.995 237.669 368.994 237.299 370.102C237.141 370.577 236.732 371.108 236.268 371.295C234.801 371.886 233.332 372.473 231.855 373.039C230.023 373.988 228.704 375.231 227.514 376.662C226.439 377.954 227.499 379.898 229.169 379.716C232.15 379.392 234.897 378.708 237.688 376.938C241.268 374.843 242.75 374.642 246.659 374.971C246.884 374.99 247.107 375.048 247.312 375.142C249.337 376.062 249.448 376.123 251.812 377.438C261.137 381.643 271.878 381.037 282.012 380.999C283.112 380.995 284 381.888 284 382.988C284 383.1 284 383.212 284 383.324C284 384.254 284.746 385.013 285.676 385.028C299.076 385.304 312.259 386.28 325.566 387.782C338.973 389.287 352.252 390.41 365.75 390.438C367.033 390.447 368.315 390.457 369.637 390.467C378.085 390.39 385.955 389.476 393.566 385.687C393.811 385.565 394.029 385.39 394.2 385.177C400.496 377.284 400.609 367.452 400.438 357.75C400.426 356.445 400.415 355.141 400.404 353.797C400.241 342.061 398.94 330.563 397 319C396.803 317.804 396.606 316.607 396.402 315.375C396.371 315.189 396.339 315.003 396.308 314.817C396.134 313.79 395.201 313.067 394.165 313.176C387.415 313.891 380.948 315.284 374.312 316.875C372.009 317.417 369.706 317.959 367.402 318.5C366.303 318.759 365.203 319.018 364.07 319.285C359.061 320.451 354.035 321.533 349.002 322.584C347.904 322.813 347.207 323.899 347.459 324.992C347.561 325.434 347.671 325.911 347.875 326.797C348.25 328.448 348.625 330.099 349 331.75C349.191 332.575 349.382 333.4 349.578 334.25C349.759 335.049 350.314 336.677 350.5 337.5C350.327 336.745 350.668 338.233 350.5 337.5C350.5 337.5 351.696 340.598 352.901 343.234C353.251 343.999 354.057 344.437 354.894 344.359C359.725 343.908 364.077 343.912 368.958 343.984C369.536 343.992 370 344.456 370 345.035C370 345.579 369.588 346.042 369.047 346.096C368.165 346.186 367.278 346.275 366.371 346.367C364.727 346.536 363.082 346.706 361.438 346.875C360.657 346.954 359.876 347.032 359.072 347.113C347.289 348.334 335.569 350.055 323.844 351.727C320.526 352.198 317.208 352.67 313.891 353.142C311.616 353.466 309.341 353.792 307.066 354.119C303.743 354.597 300.418 355.069 297.094 355.539C296.083 355.686 295.073 355.833 294.032 355.984C285.82 357.137 279.321 357.473 271.5 354.375C264.428 351.737 257.293 349.566 250 347.625C248.568 347.231 248.568 347.231 247.107 346.83C236.022 343.942 228.053 344.465 217.988 350.133C214.201 352.614 208.208 359.79 206.481 361.906C206.168 362.289 205.701 362.597 205.248 362.399C204.577 362.107 203.909 361.088 205.418 357.683C205.47 357.564 205.538 357.447 205.614 357.342C209.952 351.382 217.189 346.634 224 344C224.921 343.608 225.842 343.216 226.788 342.814C226.887 342.771 226.991 342.737 227.096 342.712C235.82 340.625 243.516 342.903 251.938 345.312C253.053 345.621 254.169 345.93 255.318 346.248C258.551 347.148 261.776 348.069 265 349C265.958 349.274 266.916 349.548 267.903 349.83C268.782 350.086 269.661 350.342 270.566 350.605C271.33 350.827 272.094 351.049 272.881 351.278C275 352 275 352 276.848 353.031C283.69 356.111 293.167 353.59 300.309 352.504C301.88 352.274 301.88 352.274 303.482 352.04C306.802 351.554 310.12 351.059 313.438 350.562C316.752 350.071 320.067 349.582 323.382 349.095C325.435 348.794 327.487 348.489 329.539 348.181C335.259 347.335 340.972 346.692 346.724 346.191C347.929 346.086 348.773 344.95 348.517 343.767C348.46 343.502 348.402 343.234 348.344 342.965C348.062 341.622 347.781 340.28 347.5 338.938C347.357 338.281 347.214 337.624 347.066 336.947C346.354 333.502 343.626 327.463 342.496 325.045C342.195 324.403 341.07 324.034 340.373 324.162C339.351 324.349 338.746 323.684 338.467 322.684C337.258 318.34 336.441 313.768 335.93 309.32C335.844 308.598 335.757 307.875 335.669 307.131C335.395 304.797 335.134 302.461 334.875 300.125C334.785 299.33 334.696 298.536 334.603 297.717C333.068 283.938 332.497 270.371 332.982 256.508Z" fill="#2B292C"/>
<path d="M187.971 251.53C187.987 251.238 188.226 251 188.519 251C188.793 251 189.029 251.201 189.068 251.473C189.171 252.183 189.274 252.898 189.38 253.629C193.285 280.607 197.471 307.526 202.187 334.375C202.314 335.098 202.441 335.821 202.571 336.566C204.613 349.122 204.185 347.994 207.266 359.619C207.413 360.174 207.319 360.775 206.985 361.244C205.856 362.833 204.5 364.5 204.5 364.5C201.74 368.64 201.255 370.431 201.049 374.799C201.018 375.454 201.534 376.084 202.15 376.309C202.636 376.486 203.176 376.233 203.531 375.858C203.601 375.784 203.671 375.657 203.742 375.41C206.713 367.355 212.401 358.8 220.137 354.723C222.363 353.859 224.517 353.362 226.833 353.107C227.462 353.038 228 353.531 228 354.164C228 354.653 227.673 355.09 227.201 355.219C226.836 355.32 226.468 355.421 226.094 355.523C215.595 358.97 210.774 366.95 205.812 376.383C205.775 376.457 205.738 376.53 205.701 376.604C205.289 377.424 205.482 378.43 206.209 378.991C208.488 380.748 210.276 381.383 213.571 381.417C214.474 381.433 215.378 381.45 216.308 381.467C217.772 381.472 217.772 381.472 219.266 381.477C220.803 381.5 220.803 381.5 222.372 381.524C225.664 381.571 228.957 381.599 232.25 381.625C236.526 381.674 240.802 381.731 245.078 381.789C246.662 381.808 246.662 381.808 248.278 381.828C258.893 381.974 269.493 382.409 280.095 382.909C281.162 382.96 282 383.839 282 384.907C282 386.262 282 387.623 282 389C282 390.105 281.105 391 280 391C253.276 391 226.533 391 199 391C211.38 391.326 223.76 391.652 236.506 391.987C236.781 391.994 237 392.215 237 392.49C237 392.769 236.773 393 236.493 393C219.998 393 203.497 393 186.511 393C186.229 393 186 392.775 186 392.493C186 392.22 186.216 391.991 186.489 391.979C186.95 391.959 187.11 391.953 187.828 391.922C191.326 391.674 194.039 391.391 197.099 389.84C197.445 389.665 197.727 389.383 197.89 389.031C200.914 382.481 197.208 372.194 195.891 365.422C195.682 364.334 195.473 363.246 195.258 362.125C194.817 359.829 194.373 357.533 193.927 355.237C193.26 351.803 192.602 348.366 191.945 344.93C189.555 332.505 186.962 320.149 184.107 307.823C182.685 301.675 181.411 295.503 180.187 289.312C179.864 287.711 179.864 287.711 179.533 286.076C178.465 280.715 178 277 176 275C175 274 173.833 274.114 172 274C172 274 169.231 274.072 168 274C168 274 163.5 274 162.5 274C162.207 274 162.89 273.546 163.436 273.034C163.993 272.513 163.517 272.003 162.755 272.008C161.492 272.015 159.872 272.021 161 272C162.444 271.965 170.632 271.84 172.105 271.805C175.149 272.01 177.651 271.821 179.741 273.748C179.916 273.91 180.05 274.113 180.146 274.332C181.06 276.405 181.088 276.542 181.66 279.375C181.89 280.457 182.119 281.538 182.356 282.652C182.568 283.757 182.781 284.862 183 286C183.313 287.487 183.313 287.487 183.632 289.004C184.259 291.998 184.852 294.998 185.437 298C185.649 299.07 185.861 300.14 186.079 301.242C186.924 305.515 187.762 309.788 188.6 314.062C188.975 315.971 189.35 317.879 189.727 319.787C190.069 321.518 190.408 323.25 190.744 324.982C190.917 325.918 191.076 326.667 191.236 327.311C191.714 329.231 194.379 328.964 194.613 327C196.196 313.74 193.745 300.667 191.5 287.5C187.405 263.483 187.344 263.127 187.971 251.53Z" fill="#2B292C"/>
<path d="M17.8732 271.962C19.105 271.46 20.4591 271.388 21.7893 271.393C22.2098 271.395 22.6333 271.397 23.0617 271.399C24.3041 271.392 25.5465 271.385 26.8265 271.378C28.2004 271.396 29.5743 271.414 30.9482 271.432C32.3971 271.434 33.8459 271.433 35.2948 271.43C39.2265 271.429 43.1576 271.458 47.0891 271.493C51.1984 271.524 55.3077 271.527 59.417 271.533C67.198 271.549 74.9785 271.59 82.7593 271.64C91.6177 271.696 100.476 271.723 109.335 271.748C127.351 271.8 145.366 271.887 163.382 271.996C163.761 271.999 164.104 272.208 164.274 272.547C164.607 273.214 164.128 274.005 163.382 274.009C163.204 274.01 162.99 274.011 162.707 274.013C144.322 274.116 125.937 274.225 107.553 274.339C98.6619 274.395 89.7713 274.448 80.8806 274.497C73.1344 274.54 65.3881 274.586 57.6419 274.637C53.5378 274.663 49.4337 274.688 45.3295 274.709C41.471 274.729 37.6126 274.753 33.7541 274.78C32.3339 274.79 30.9136 274.798 29.4934 274.803C27.5625 274.812 25.6317 274.827 23.7009 274.842C22.6178 274.848 21.5347 274.855 20.4188 274.861C17.8964 274.719 16.8063 277.34 16.7802 279.866C16.7101 286.65 18.2143 293.272 19.625 299.938C19.8998 301.269 20.1739 302.601 20.4475 303.932C22.4246 313.499 24.523 323.039 26.6716 332.568C28.0991 338.904 29.4877 345.247 30.8281 351.602C30.9831 352.336 31.138 353.07 31.2976 353.827C32.0529 357.412 32.8046 360.998 33.5525 364.585C34.8296 370.688 36.1419 376.781 37.582 382.848C37.8074 383.798 38.0327 384.748 38.2649 385.727C39.078 389.041 42.8096 390.322 46.2222 390.289C46.5043 390.286 46.8156 390.282 47.1629 390.278C48.4782 390.29 49.7936 390.301 51.1488 390.312C52.615 390.315 54.0812 390.317 55.5474 390.319C57.0846 390.328 58.6218 390.338 60.159 390.349C64.3406 390.377 68.5221 390.392 72.7037 390.405C77.0707 390.42 81.4375 390.447 85.8044 390.473C94.0775 390.52 102.351 390.556 110.624 390.589C120.041 390.628 129.458 390.677 138.875 390.727C158.073 390.83 177.272 390.918 196.471 390.998C196.763 390.999 197 391.233 197 391.526C197 391.794 196.799 392.025 196.533 392.056C186.925 393.188 177.337 393.134 167.677 393.114C165.843 393.113 164.009 393.113 162.175 393.114C157.225 393.114 152.275 393.108 147.326 393.101C142.142 393.095 136.959 393.095 131.775 393.093C121.972 393.09 112.169 393.082 102.367 393.072C91.2009 393.061 80.0352 393.055 68.8695 393.05C46.4568 393.04 24.0441 393.023 1.63143 393.002C0.881503 393.001 0.345963 392.308 0.681341 391.637C0.847815 391.304 1.23228 390.994 1.60438 390.983C11.9152 390.697 22.2307 390.41 32.7861 390.117C34.7502 390.062 35.9957 387.991 35.117 386.234C35.0406 386.081 34.9766 385.917 34.9313 385.753C34.587 384.5 34.2865 383.236 34.0261 381.964C33.78 380.783 33.78 380.783 33.5289 379.578C33.3582 378.731 33.1876 377.884 33.0117 377.012C32.8283 376.125 32.6449 375.239 32.456 374.325C31.8615 371.447 31.2746 368.567 30.6875 365.688C30.0757 362.718 29.4619 359.748 28.848 356.779C28.4454 354.831 28.0434 352.883 27.6421 350.934C26.2446 344.154 24.805 337.385 23.3125 330.625C21.981 324.58 20.6872 318.528 19.4375 312.465C19.3026 311.81 19.1676 311.156 19.0286 310.481C18.3672 307.268 17.709 304.055 17.0539 300.84C15.5663 293.57 15.5663 293.57 13.8477 286.352C13.3413 284.35 12.9755 282.647 12.8576 280.873C12.688 278.32 13.5057 275.72 15.2205 273.821C15.943 273.021 16.7508 272.419 17.8732 271.962Z" fill="#2B292C"/>
<path d="M190.5 324C192.15 324 193.3 324 195 324C194.886 325.592 194.758 327.183 194.625 328.773C194.555 329.659 194.486 330.545 194.414 331.457C194.414 331.457 194 334 193 339C192.34 335.04 191.18 328.08 190.5 324Z" fill="#EDB58D"/>
<path d="M20.6712 273.751C21.8146 273.752 22.958 273.752 24.136 273.753C25.4456 273.749 26.7551 273.744 28.1044 273.74C29.5642 273.746 31.0241 273.751 32.4839 273.757C34.0146 273.756 35.5454 273.754 37.0761 273.751C41.2414 273.746 45.4067 273.754 49.572 273.764C53.9264 273.773 58.2807 273.771 62.6351 273.771C69.9506 273.772 77.2661 273.781 84.5816 273.794C93.0419 273.81 101.502 273.815 109.962 273.814C118.094 273.814 126.226 273.819 134.358 273.827C137.821 273.831 141.284 273.833 144.748 273.833C148.827 273.834 152.906 273.84 156.986 273.85C158.484 273.853 159.982 273.854 161.48 273.854C163.523 273.853 165.567 273.86 167.61 273.866C169.326 273.869 169.326 273.869 171.077 273.871C172.571 273.937 173.91 274.068 175.253 274.319C176.98 274.642 178.259 276.043 178.676 277.75C181.101 287.67 183.38 297.607 185.352 307.633C185.788 309.832 186.224 312.03 186.66 314.229C186.881 315.348 187.102 316.466 187.33 317.618C188.414 323.089 189.51 328.558 190.605 334.027C191.036 336.179 191.466 338.331 191.896 340.482C192.109 341.544 192.321 342.605 192.54 343.699C196.934 365.672 196.934 365.672 197.468 368.35C197.832 370.164 198.201 371.976 198.573 373.788C198.754 374.674 198.936 375.561 199.122 376.475C199.285 377.264 199.448 378.052 199.616 378.865C200.338 382.877 200.564 385.362 198.884 388.53C198.363 389.512 197.432 390.212 196.353 390.481C193.834 391.108 191.677 391.133 188.813 391.14C186.87 391.149 186.87 391.149 184.887 391.158C183.448 391.159 182.009 391.16 180.57 391.161C179.058 391.166 177.545 391.171 176.032 391.176C171.92 391.189 167.809 391.196 163.698 391.2C161.13 391.203 158.563 391.207 155.996 391.212C147.968 391.225 139.941 391.235 131.913 391.239C122.638 391.243 113.362 391.261 104.087 391.29C96.9218 391.311 89.7566 391.322 82.5913 391.323C78.3094 391.324 74.0276 391.33 69.7457 391.348C65.7205 391.364 61.6955 391.366 57.6703 391.358C56.1912 391.357 54.7121 391.361 53.2331 391.371C51.2178 391.384 49.2024 391.376 47.187 391.367C46.058 391.369 44.9291 391.37 43.7659 391.372C41.3401 391.046 41.0418 391.006 39.7655 390.064C39.3635 389.768 39.0078 389.41 38.7381 388.989C37.5497 387.137 37.1229 385.444 36.6016 383.16C36.2289 381.546 36.2289 381.546 35.8486 379.899C35.5686 378.612 35.2886 377.326 35 376C34.8363 375.254 34.6725 374.507 34.5038 373.738C33.0966 367.311 31.7329 360.875 30.375 354.438C29.9377 352.367 29.5004 350.296 29.063 348.226C28.3881 345.03 27.7135 341.835 27.04 338.639C25.7084 332.326 24.3602 326.018 22.9947 319.713C22.1491 315.803 21.3114 311.891 20.4749 307.98C20.0787 306.135 19.679 304.292 19.2756 302.449C15.573 285.519 15.2747 284.154 15.8347 277.8C15.937 276.639 16.4132 275.506 17.3004 274.751C18.2048 273.981 18.7396 273.931 20.6712 273.751Z" fill="#BAC5D7"/>
<path d="M202 383.032C202 381.915 202.915 381.014 204.031 381.032C210.938 381.141 217.844 381.255 224.75 381.371C227.319 381.413 229.887 381.455 232.456 381.495C248.349 381.746 264.22 382.159 280.097 382.901C281.162 382.95 282 383.83 282 384.897C282 386.244 282 387.596 282 388.964C282 390.065 281.11 390.96 280.008 390.964C254.628 391.062 229.283 391.023 203.919 390.037C202.847 389.995 202 389.113 202 388.04C202 386.382 202 384.718 202 383.032Z" fill="#BAC5D7"/>
<path d="M107 327C109.7 328.8 111.542 330.084 113 333C113.486 337.293 113.462 339.321 111 342.938C106.849 345.791 104.97 345.71 100 345C97.3247 343.354 96.3551 342.112 95.4023 339.129C94.6378 335.202 94.6561 333.557 96.8125 330.063C100.221 326.849 102.348 326.544 107 327Z" fill="white"/>
<path d="M265.54 98.1873C268.169 96.7165 270.784 98.989 270.699 102C270.48 113.008 270.935 121.941 274.096 131.368C275.897 136.739 281.295 139.105 285.199 135C286.873 133.408 287.853 132.909 289.307 132.563C291.2 132.112 293.239 132.073 294.989 132.924C296.797 133.803 298.262 135.137 299.606 136.814C300.224 137.584 300.723 138.447 301.05 139.379C302.543 143.634 302.318 148.199 301 152.5C299.073 156.857 295.979 159.877 291.716 162.016C291.057 162.347 290.233 162.443 289.498 162.396C286.881 162.226 284.586 164.475 284.69 167.096C285.278 181.854 285.873 182.51 292.5 199C293.297 200.576 293.673 200.913 293.886 202.959C293.992 203.98 293.946 205.018 293.682 206.01C292.621 210.001 289.879 213.947 287.199 217.5C286.595 218.339 284.822 219.135 284.199 220C281.747 222.78 279.919 224.177 276.699 226C275.187 226.872 274.742 227.11 273.199 228C266.184 231.543 259.702 232.339 252.113 231.691C250.841 231.582 249.584 231.292 248.441 230.725C245.983 229.507 243.719 227.818 241.699 226C218.26 208.316 251.699 203 230.699 197C227.385 195.904 225.227 194.382 222.699 192C221.671 191.053 221.671 191.053 220.621 190.086C215.129 184.492 212.116 178.409 209.699 171C209.331 169.886 208.962 168.773 208.582 167.625C206.977 160.926 207.403 153.91 207.449 147.062C207.451 146.318 207.197 145.767 207.199 145C207.235 131.991 208.178 118.931 209.495 105.977C209.599 104.96 210.568 104.285 211.539 104.604C211.613 104.628 211.738 104.663 211.815 104.676C219.573 106.013 226.899 107.303 234.949 107.312C235.966 107.318 236.983 107.323 238.031 107.328C247.088 107.245 253.929 105.411 261.699 100.5C263.28 99.5106 264.521 98.7576 265.54 98.1873Z" fill="#EDB58D"/>
<path d="M228.966 141.419C229.438 140.772 230.424 140.848 230.782 141.564C230.919 141.837 230.935 142.163 230.818 142.445C229.926 144.594 228.869 146.632 227.812 148.711C227.548 149.456 227.356 150.076 227.241 150.637C226.645 153.56 229.024 156.183 231.562 157.75C232.203 158.178 232.844 158.606 233.504 159.047C233.582 159.097 233.661 159.147 233.739 159.197C234.456 159.653 234.715 160.57 234.335 161.329C234.124 161.751 233.74 162.072 233.284 162.194C232.17 162.491 231.886 162.526 230.062 162.75C229.66 162.806 229.258 162.861 228.851 162.917C228.225 163.003 227.57 163.062 226.941 163.006C224.559 162.796 223.687 159.742 223.572 157.353C223.294 151.574 225.146 147.071 228.687 141.801C228.78 141.673 228.873 141.546 228.966 141.419Z" fill="#2B292C"/>
<path d="M225 171.528C225 170.818 225.737 170.345 226.38 170.645C226.62 170.757 226.861 170.87 227.105 170.984C233.536 173.241 240.816 172.663 247.47 170.997C248.458 170.75 249.165 171.918 248.371 172.555C246.046 174.42 243.87 174.942 239.941 175.203C238.269 175.226 238.269 175.226 236.562 175.25C234.894 175.289 234.894 175.289 233.191 175.328C229.832 174.983 227.967 174.223 225.381 172.289C225.14 172.109 225 171.828 225 171.528Z" fill="#2B292C"/>
<path d="M242 125.487C242 124.658 242.646 123.96 243.474 123.92C250.374 123.589 255.36 124.059 261.48 127.686C261.804 127.878 262 128.224 262 128.601C262 129.308 261.335 129.832 260.649 129.659C260.343 129.581 260.017 129.499 259.402 129.344C251.321 127.369 250.825 127.248 243.525 127.042C242.676 127.018 242 126.335 242 125.487Z" fill="#2B292C"/>
<path d="M248.106 136.153C248.399 135.299 249.53 135.177 250.387 135.462C251.347 135.782 252.012 136.682 252.027 137.694C252.09 141.906 252.07 143.274 251.706 144.409C251.4 145.361 250.307 145.769 249.359 145.453C248.551 145.184 247.989 144.431 247.976 143.58C247.961 142.574 247.948 141.568 247.938 140.562C247.926 139.739 247.914 138.915 247.902 138.066C247.95 137.051 247.975 136.535 248.106 136.153Z" fill="#2B292C"/>
<path d="M289.521 140.742C289.788 140.314 290.338 140.169 290.79 140.395C290.895 140.447 291 140.5 291.106 140.553C291.6 140.8 291.8 141.4 291.553 141.894C291.187 142.626 290.819 143.361 290.447 144.106C290.2 144.6 290.4 145.2 290.894 145.447C291.711 145.855 292.53 146.265 293.363 146.681C293.744 146.872 293.963 147.285 293.906 147.708C293.692 149.313 293.619 149.632 293.097 151.63C293.035 151.867 292.887 152.075 292.684 152.211C292.597 152.268 292.511 152.326 292.425 152.383C291.633 152.911 290.621 152.138 290.922 151.235C291.105 150.684 291.289 150.132 291.475 149.576C291.713 148.861 291.105 148.149 290.362 148.273C289.447 148.425 288.529 148.578 287.602 148.733C286.867 148.855 286.26 148.16 286.494 147.453C287.294 145.035 288.135 142.969 289.521 140.742Z" fill="#2B292C"/>
<path d="M223.911 124.019C224.57 124.043 225.133 124.476 225.342 125.102C225.675 126.103 224.987 127.162 223.935 127.249C223.524 127.284 223.061 127.322 222.25 127.39C218.81 127.803 216.89 128.591 214.313 130.804C214.11 130.978 213.857 131.077 213.589 131.077C212.824 131.077 212.292 130.307 212.635 129.623C214.938 125.031 218.765 123.83 223.911 124.019Z" fill="#2B292C"/>
<path d="M217.208 137.141C217.505 136.297 218.623 136.175 219.472 136.458C220.436 136.78 221.098 137.686 221.098 138.702C221.098 140.264 221.098 141.831 221.098 143.42C221.098 144.349 220.479 145.155 219.578 145.38C218.316 145.695 217.075 144.758 217.058 143.457C217.05 142.825 217.042 142.194 217.035 141.562C217.024 140.739 217.012 139.915 217 139.066C217.049 138.04 217.073 137.523 217.208 137.141Z" fill="#2B292C"/>
<path d="M240.188 63.75C240.926 63.7575 241.664 63.765 242.425 63.7727C256.473 64.0445 270.849 66.2654 281.414 76.2539C284.717 79.8907 285.641 80.9079 285.9 82.2003C286.088 83.1426 286.839 83.9013 287.793 83.7891C292.147 83.4907 294.125 83.405 297.442 86.0796C297.731 86.3126 297.982 86.5939 298.183 86.9061C303.84 95.6935 304.512 106.261 302.53 116.407C301.771 119.725 301.01 123.03 300.072 126.302C298.683 131.71 299.197 134.445 302.013 139.256C303.98 142.731 303.655 146.174 303 150C301.202 155.616 298.378 159.361 293.621 162.589C293.214 162.865 292.752 163.052 292.271 163.153C291.205 163.376 290.476 163.525 289.866 163.631C287.734 164.003 286.047 165.721 286.148 167.883C286.622 178.074 287.93 189.038 293.129 197.766C294.863 200.764 294.99 200.983 295.099 203.637C295.117 204.083 295.06 204.531 294.923 204.956C291.857 214.485 285.56 222.943 276.738 227.793C267.423 232.185 258.779 234.96 248.426 232.352C241.054 229.423 237.016 224.456 233.625 217.438C232.367 214.401 231.787 211.842 231.881 208.752C231.911 207.755 232.745 207 233.742 207C234.926 207 235.85 205.951 235.683 204.778C235.536 203.754 235.443 203.1 235.284 201.989C235.11 200.771 234.261 199.756 233.094 199.371C222.277 195.478 216.044 189.282 211 179C207.129 170.009 205.837 161.745 205.938 152.016C205.941 151.161 205.945 150.305 205.949 149.424C205.965 145.805 205.993 142.185 206.021 138.566C206.088 128.849 206.087 119.134 205.75 109.422C205.736 108.631 205.722 107.841 205.707 107.026C205.555 103.574 205.358 101.575 203.28 98.9271C203.108 98.707 202.905 98.511 202.686 98.3371C202.357 98.0765 202.028 97.8152 201.695 97.5514C201.237 97.1882 200.855 96.7329 200.634 96.1915C199.182 92.6193 199.556 88.5062 199.934 84.6722C199.978 84.2271 200.094 83.7904 200.292 83.3893C204.435 75 212.43 70.405 220.875 67.043C227.403 64.8643 233.292 63.6562 240.188 63.75ZM259.434 103.273C251.683 107.171 243.799 107.356 235.25 107.312C233.67 107.311 233.67 107.311 232.059 107.309C226.021 107.234 220.439 106.731 214.766 105.358C212.288 104.758 209.749 106.394 209.509 108.932C208.397 120.72 207.722 132.518 207.591 144.366C207.572 145.806 207.545 147.246 207.509 148.685C207.179 162.543 209.497 177.234 219 188C225.093 194.105 229.296 197.284 238.125 197.375C248.199 197.329 255.079 193.989 263.188 188.27C264.399 187.421 265.757 188.692 265.126 190.03C264.856 190.604 264.585 191.177 264.312 191.75C263.814 192.817 263.315 193.885 262.801 194.984C259.652 200.258 254.879 203.348 249 205C246.242 205.387 243.49 205.649 240.722 205.837C239.081 205.949 237.625 207.021 237.271 208.627C235.887 214.921 237.419 220.098 240.5 224.5C240.5 224.5 241.5 226.167 245 228.5C249 231.167 253 231.5 253 231.5C262 231.5 263.556 231.573 270.375 228.875C280.51 224.043 288.4 217.071 292.791 206.512C292.931 206.174 293.022 205.814 293.053 205.45C293.35 201.983 292.721 200.113 290.688 197.125C285.045 187.455 284.514 175.488 284.12 164.351C284.06 162.629 285.604 161.287 287.301 161.59C290.846 162.286 291.006 162.318 293.775 160.791C294.048 160.64 294.305 160.457 294.533 160.244C299.2 155.867 301.2 151.372 301.562 144.875C301.411 141.608 300.961 139.346 299.165 136.702C299.016 136.483 298.839 136.283 298.646 136.102C296.345 133.945 296.069 133.771 293.328 133.355C292.864 133.285 292.388 133.295 291.932 133.404C288.166 134.305 286.476 135.8 283.676 138.688C282.479 139.625 282.137 139.893 280.581 139.969C279.012 140.047 277.583 139.081 276.941 137.646C276.332 136.287 275.727 134.925 275.125 133.562C274.591 132.368 274.058 131.173 273.508 129.941C270.424 122.336 269.711 115.087 269.875 106.938C269.884 106.072 269.893 105.206 269.902 104.314C269.911 103.567 269.92 102.82 269.931 102.073C269.964 99.8358 268.104 98.0299 266.083 98.9905C263.728 100.11 261.531 101.948 259.434 103.273Z" fill="#2B292C"/>
<rect x="77" y="188.933" width="75.718" height="39.0594" rx="6" transform="rotate(-13.7004 77 188.933)" fill="#C7DDFA"/>
<path d="M93.4456 211.92C93.0609 212.014 92.767 211.999 92.564 211.876C92.3726 211.749 92.2357 211.517 92.1533 211.179L89.7361 201.264C89.6537 200.925 89.6698 200.662 89.7844 200.474C89.9078 200.271 90.1677 200.121 90.5641 200.024L92.2255 199.619C92.4703 199.559 92.6653 199.549 92.8106 199.588C92.9648 199.612 93.1287 199.702 93.3024 199.857L97.6145 203.789L96.5956 199.61C96.5132 199.272 96.5278 199.003 96.6396 198.802C96.763 198.599 97.0171 198.451 97.4019 198.357L99.4829 197.85C99.8793 197.753 100.173 197.768 100.365 197.894C100.565 198.006 100.707 198.237 100.793 198.587L103.21 208.502C103.292 208.84 103.272 209.111 103.148 209.314C103.034 209.502 102.778 209.645 102.382 209.742L100.721 210.147C100.476 210.206 100.276 210.224 100.122 210.2C99.9768 210.161 99.8173 210.064 99.6436 209.909L95.3315 205.976L96.3547 210.173C96.4371 210.512 96.4166 210.782 96.2932 210.985C96.1785 211.174 95.923 211.316 95.5267 211.413L93.4456 211.92ZM113.168 207.39C111.093 207.896 109.389 207.743 108.055 206.932C106.718 206.109 105.808 204.707 105.324 202.725C104.841 200.743 105.005 199.085 105.816 197.751C106.625 196.405 108.066 195.48 110.142 194.974C112.217 194.468 113.923 194.626 115.26 195.449C116.594 196.26 117.502 197.657 117.986 199.639C118.469 201.621 118.306 203.284 117.498 204.63C116.687 205.964 115.244 206.884 113.168 207.39ZM112.452 204.452C113.21 204.267 113.693 203.866 113.9 203.247C114.105 202.617 114.073 201.753 113.806 200.657C113.536 199.55 113.167 198.769 112.698 198.315C112.229 197.861 111.616 197.727 110.858 197.912C110.1 198.096 109.617 198.498 109.41 199.117C109.203 199.736 109.234 200.599 109.504 201.706C109.771 202.802 110.141 203.583 110.612 204.048C111.081 204.502 111.694 204.637 112.452 204.452ZM123.805 204.519C123.421 204.613 123.127 204.598 122.924 204.475C122.733 204.348 122.596 204.116 122.513 203.778L120.1 193.88C120.018 193.542 120.032 193.273 120.144 193.073C120.268 192.869 120.522 192.721 120.906 192.627L124.929 191.647C129.044 190.643 131.585 192.124 132.551 196.088C133.029 198.046 132.859 199.656 132.043 200.918C131.238 202.176 129.833 203.05 127.828 203.539L123.805 204.519ZM127.26 200.527C127.913 200.368 128.327 200.039 128.502 199.539C128.688 199.037 128.645 198.226 128.372 197.107C128.099 195.987 127.764 195.248 127.368 194.887C126.983 194.524 126.464 194.422 125.811 194.581L124.779 194.833L126.229 200.779L127.26 200.527ZM138.379 200.966C137.994 201.06 137.701 201.045 137.498 200.922C137.306 200.796 137.169 200.563 137.087 200.225L134.674 190.327C134.591 189.989 134.606 189.72 134.718 189.52C134.841 189.317 135.095 189.168 135.48 189.075L142.72 187.31C143.093 187.219 143.364 187.239 143.532 187.371C143.709 187.489 143.84 187.722 143.925 188.072L144.164 189.051C144.249 189.401 144.242 189.675 144.141 189.872C144.05 190.055 143.818 190.192 143.445 190.282L139.353 191.28L139.719 192.784L142.238 192.17C142.611 192.079 142.881 192.1 143.049 192.232C143.226 192.349 143.357 192.583 143.442 192.932L143.673 193.877C143.758 194.227 143.75 194.5 143.65 194.697C143.559 194.88 143.327 195.017 142.954 195.108L140.436 195.722L140.802 197.226L144.877 196.233C145.25 196.142 145.521 196.162 145.689 196.294C145.865 196.412 145.996 196.645 146.082 196.995L146.32 197.974C146.406 198.324 146.398 198.598 146.298 198.795C146.207 198.978 145.975 199.115 145.602 199.206L138.379 200.966Z" fill="white"/>
<rect x="157" y="7.62477" width="97.2496" height="33.634" rx="6" transform="rotate(-4.20883 157 7.62477)" fill="#C7DDFA"/>
<path d="M165.839 30.0422C165.615 30.0587 165.497 29.9711 165.483 29.7797C165.476 29.6946 165.495 29.5862 165.539 29.4547L168.878 19.4546C168.948 19.2462 169.028 19.1013 169.119 19.0198C169.219 18.9269 169.37 18.873 169.572 18.8581L171.024 18.7512C171.226 18.7363 171.378 18.7679 171.48 18.846C171.592 18.9126 171.698 19.0439 171.798 19.2397L176.565 28.6432C176.628 28.767 176.662 28.8661 176.667 28.9405C176.674 29.0363 176.648 29.1131 176.588 29.171C176.539 29.2281 176.461 29.2606 176.354 29.2684L173.881 29.4504C173.732 29.4614 173.613 29.4434 173.524 29.3964C173.434 29.3389 173.358 29.2429 173.294 29.1085L172.623 27.6178L169.272 27.8644L168.842 29.4362C168.799 29.5784 168.738 29.6845 168.657 29.7546C168.576 29.8141 168.456 29.8496 168.296 29.8614L165.839 30.0422ZM171.761 25.4993L170.588 22.8583L169.815 25.6426L171.761 25.4993ZM179.531 29.0346C179.222 29.0573 179 29.0095 178.863 28.8913C178.736 28.7722 178.663 28.5744 178.642 28.2978L177.961 19.0429C177.941 18.7663 177.99 18.5595 178.108 18.4224C178.226 18.2854 178.44 18.2055 178.748 18.1828L180.009 18.09C180.2 18.0759 180.351 18.0916 180.462 18.1369C180.582 18.1815 180.702 18.2797 180.82 18.4314L184.896 23.4578L184.537 18.575C184.516 18.2984 184.565 18.0916 184.684 17.9546C184.801 17.8069 185.009 17.7221 185.307 17.7002L186.854 17.5863C187.163 17.5636 187.386 17.6167 187.524 17.7456C187.661 17.8638 187.74 18.0612 187.76 18.3378L188.441 27.5928C188.461 27.8694 188.412 28.0762 188.294 28.2132C188.175 28.3397 187.961 28.4142 187.653 28.4369L186.392 28.5297C186.19 28.5446 186.034 28.5346 185.925 28.4999C185.815 28.4546 185.7 28.356 185.582 28.2043L181.506 23.1778L181.867 28.0766C181.887 28.3532 181.838 28.56 181.72 28.697C181.601 28.8235 181.387 28.898 181.079 28.9207L179.531 29.0346ZM196.498 28.0267C194.604 28.166 193.101 27.7953 191.988 26.9147C190.874 26.0233 190.249 24.6522 190.113 22.8012C189.977 20.9502 190.395 19.5076 191.367 18.4735C192.349 17.4279 193.781 16.8359 195.664 16.6973C196.483 16.637 197.234 16.6673 197.917 16.7882C198.599 16.8985 199.174 17.0861 199.643 17.3511C199.765 17.4169 199.83 17.503 199.838 17.6094C199.843 17.6732 199.814 17.7824 199.75 17.9368L199.136 19.1852C199.082 19.3282 199.002 19.4036 198.896 19.4114C198.832 19.4161 198.723 19.3867 198.569 19.3232C197.862 19.0223 197.094 18.9023 196.264 18.9634C195.275 19.0362 194.513 19.3756 193.981 19.9817C193.458 20.587 193.238 21.4482 193.32 22.5651C193.404 23.7034 193.722 24.5303 194.273 25.0459C194.824 25.5615 195.573 25.7845 196.52 25.7148C196.754 25.6976 196.997 25.6583 197.249 25.5969C197.512 25.5348 197.721 25.466 197.876 25.3904L197.733 23.4437L196.36 23.5447C196.063 23.5666 195.851 23.5233 195.725 23.4149C195.61 23.3057 195.542 23.1075 195.521 22.8203L195.468 22.1023C195.448 21.8257 195.487 21.625 195.584 21.5001C195.693 21.3745 195.896 21.3007 196.194 21.2788L199.592 21.0287C199.954 21.0021 200.21 21.0688 200.361 21.2288C200.511 21.3782 200.599 21.6231 200.624 21.9635L200.91 25.857C200.925 26.0591 200.91 26.2206 200.866 26.3415C200.831 26.4511 200.743 26.5645 200.602 26.6818C199.674 27.4453 198.306 27.8936 196.498 28.0267ZM208.084 27.1741C207.073 27.2484 206.167 27.1493 205.367 26.8767C204.576 26.6033 203.945 26.1684 203.474 25.5721C203.002 24.9758 202.734 24.2468 202.671 23.3851L202.221 17.2736C202.201 16.997 202.25 16.7902 202.368 16.6532C202.486 16.5055 202.693 16.4207 202.991 16.3988L204.539 16.2848C204.847 16.2621 205.071 16.3152 205.208 16.4441C205.345 16.5624 205.424 16.7598 205.445 17.0364L205.898 23.1958C205.942 23.7915 206.14 24.2368 206.493 24.5316C206.857 24.8151 207.331 24.9353 207.916 24.8922C208.501 24.8492 208.947 24.6613 209.254 24.3285C209.56 23.9851 209.691 23.5155 209.648 22.9198L209.194 16.7605C209.174 16.4839 209.223 16.2771 209.341 16.14C209.459 15.9923 209.666 15.9075 209.964 15.8856L211.512 15.7717C211.821 15.749 212.044 15.8021 212.182 15.931C212.329 16.0485 212.413 16.2455 212.434 16.5221L212.883 22.6336C212.947 23.4952 212.784 24.2559 212.394 24.9157C212.014 25.5746 211.454 26.0972 210.712 26.4833C209.97 26.8694 209.094 27.0997 208.084 27.1741ZM216.249 26.3325C215.941 26.3552 215.718 26.3074 215.581 26.1892C215.454 26.0701 215.381 25.8723 215.361 25.5957L214.681 16.3567C214.66 16.0801 214.709 15.8733 214.828 15.7363C214.945 15.5886 215.153 15.5038 215.451 15.4819L216.998 15.368C217.307 15.3452 217.53 15.3983 217.668 15.5272C217.805 15.6455 217.884 15.8429 217.904 16.1195L218.472 23.8426L222.589 23.5397C222.887 23.5177 223.094 23.5667 223.21 23.6865C223.325 23.7957 223.393 23.9939 223.414 24.2811L223.468 25.0152C223.488 25.2917 223.45 25.4978 223.353 25.6333C223.255 25.7581 223.057 25.8315 222.759 25.8534L216.249 26.3325ZM224.994 25.6889C224.771 25.7054 224.652 25.6179 224.638 25.4264C224.632 25.3413 224.651 25.2329 224.694 25.1014L228.034 15.1013C228.104 14.893 228.184 14.748 228.274 14.6665C228.374 14.5736 228.526 14.5197 228.728 14.5048L230.18 14.3979C230.382 14.3831 230.534 14.4146 230.636 14.4927C230.748 14.5593 230.854 14.6906 230.954 14.8864L235.721 24.2899C235.783 24.4137 235.817 24.5128 235.823 24.5873C235.83 24.683 235.803 24.7598 235.743 24.8177C235.694 24.8748 235.616 24.9073 235.51 24.9151L233.037 25.0971C232.888 25.1081 232.769 25.0901 232.68 25.0432C232.59 24.9856 232.513 24.8896 232.45 24.7552L231.779 23.2645L228.428 23.5111L227.998 25.0829C227.955 25.2251 227.893 25.3312 227.813 25.4013C227.732 25.4608 227.611 25.4964 227.452 25.5081L224.994 25.6889ZM230.917 21.146L229.744 18.505L228.97 21.2893L230.917 21.146ZM238.686 24.6813C238.378 24.704 238.155 24.6563 238.018 24.538C237.892 24.419 237.818 24.2211 237.798 23.9446L237.118 14.7055C237.098 14.429 237.147 14.2221 237.265 14.0851C237.382 13.9374 237.59 13.8526 237.888 13.8307L241.813 13.5418C243.292 13.433 244.405 13.6612 245.153 14.2266C245.9 14.7919 246.319 15.6863 246.409 16.9096C246.521 18.4308 246.013 19.5217 244.885 20.1823L246.717 23.4967C246.766 23.5787 246.794 23.6623 246.8 23.7474C246.807 23.8431 246.776 23.9256 246.706 23.9949C246.647 24.0635 246.559 24.102 246.442 24.1106L244.208 24.275C244.048 24.2868 243.919 24.2749 243.82 24.2394C243.732 24.2031 243.662 24.128 243.611 24.0141L242.048 20.8724L240.819 20.9628L241.021 23.7074C241.042 23.9839 240.993 24.1908 240.874 24.3278C240.756 24.4649 240.543 24.5447 240.234 24.5674L238.686 24.6813ZM241.832 18.594C242.8 18.5228 243.251 18.0404 243.186 17.1468C243.119 16.2426 242.628 15.8241 241.714 15.8915L240.453 15.9842L240.651 18.6809L241.832 18.594Z" fill="white"/>
<rect x="326.671" y="121" width="74.1207" height="33.5375" rx="6" transform="rotate(4.0184 326.671 121)" fill="#C7DDFA"/>
<path d="M333.025 144.509C332.674 144.484 332.429 144.392 332.29 144.233C332.163 144.074 332.109 143.84 332.131 143.532L332.766 134.498C332.787 134.189 332.873 133.965 333.021 133.826C333.181 133.688 333.436 133.631 333.787 133.655L337.602 133.923C339.198 134.036 340.335 134.436 341.014 135.126C341.704 135.805 342.004 136.783 341.915 138.06C341.861 138.826 341.682 139.466 341.379 139.979C341.087 140.482 340.659 140.864 340.095 141.124L341.357 144.404C341.393 144.492 341.408 144.59 341.4 144.696C341.392 144.813 341.343 144.906 341.252 144.974C341.173 145.044 341.069 145.074 340.941 145.065L338.244 144.875C338.074 144.863 337.937 144.832 337.833 144.782C337.741 144.722 337.678 144.632 337.644 144.512L336.671 141.461L336.129 141.423L335.962 143.801C335.94 144.109 335.849 144.333 335.69 144.471C335.541 144.611 335.286 144.668 334.924 144.642L333.025 144.509ZM336.922 138.8C337.263 138.824 337.535 138.752 337.74 138.585C337.954 138.418 338.075 138.154 338.1 137.792C338.126 137.419 338.045 137.136 337.855 136.941C337.676 136.746 337.417 136.637 337.076 136.613L335.991 136.537L335.837 138.724L336.922 138.8ZM345.247 145.367C344.895 145.343 344.651 145.251 344.512 145.091C344.384 144.932 344.331 144.699 344.353 144.39L344.987 135.357C345.009 135.048 345.094 134.824 345.243 134.685C345.403 134.546 345.658 134.489 346.009 134.514L352.617 134.978C352.957 135.002 353.181 135.093 353.287 135.25C353.405 135.397 353.453 135.63 353.431 135.95L353.368 136.843C353.345 137.163 353.265 137.392 353.127 137.532C353 137.662 352.767 137.715 352.426 137.692L348.691 137.429L348.595 138.802L350.893 138.963C351.234 138.987 351.457 139.078 351.564 139.235C351.682 139.382 351.73 139.615 351.707 139.935L351.647 140.797C351.624 141.116 351.544 141.345 351.406 141.485C351.279 141.615 351.045 141.669 350.705 141.645L348.407 141.483L348.31 142.856L352.029 143.117C352.369 143.141 352.593 143.232 352.7 143.389C352.818 143.536 352.865 143.769 352.843 144.088L352.78 144.982C352.758 145.301 352.677 145.531 352.539 145.671C352.412 145.801 352.179 145.854 351.838 145.83L345.247 145.367ZM355.561 146.092C355.327 146.075 355.217 145.955 355.233 145.732C355.24 145.636 355.275 145.521 355.338 145.386L359.983 136.105C360.095 135.889 360.212 135.742 360.335 135.665C360.47 135.578 360.648 135.542 360.872 135.558L362.612 135.68C362.835 135.696 363.002 135.756 363.112 135.86C363.234 135.954 363.335 136.116 363.415 136.346L366.702 146.185C366.745 146.327 366.763 146.446 366.757 146.542C366.741 146.765 366.616 146.869 366.382 146.852L363.381 146.641C363.052 146.618 362.854 146.46 362.789 146.167L362.489 144.959L359.664 144.76L359.214 145.915C359.109 146.197 358.891 146.326 358.561 146.303L355.561 146.092ZM361.884 142.382L361.401 140.359L360.639 142.294L361.884 142.382ZM374.525 147.665C372.589 147.529 371.116 146.949 370.108 145.927C369.101 144.894 368.663 143.441 368.794 141.568C368.927 139.685 369.542 138.306 370.641 137.431C371.75 136.558 373.268 136.188 375.194 136.324C376.066 136.385 376.837 136.525 377.506 136.743C378.175 136.961 378.727 137.24 379.163 137.581C379.284 137.686 379.341 137.797 379.332 137.914C379.326 138.009 379.268 138.139 379.161 138.303L378.266 139.619C378.171 139.762 378.064 139.829 377.947 139.821C377.873 139.816 377.754 139.765 377.589 139.668C377.302 139.498 376.996 139.359 376.672 139.25C376.359 139.143 375.984 139.074 375.548 139.043C374.665 138.981 373.971 139.189 373.467 139.667C372.963 140.145 372.677 140.868 372.609 141.836C372.542 142.794 372.745 143.551 373.219 144.108C373.694 144.655 374.373 144.959 375.256 145.021C376.022 145.075 376.736 144.965 377.397 144.691C377.573 144.617 377.698 144.584 377.773 144.589C377.89 144.597 377.986 144.679 378.06 144.833L378.762 146.262C378.846 146.439 378.884 146.576 378.878 146.671C378.869 146.788 378.798 146.89 378.664 146.977C378.184 147.253 377.593 147.453 376.889 147.574C376.186 147.696 375.398 147.726 374.525 147.665ZM384.761 148.143C384.41 148.119 384.165 148.026 384.027 147.867C383.899 147.708 383.846 147.475 383.868 147.166L384.376 139.936L382.077 139.775C381.737 139.751 381.507 139.665 381.389 139.518C381.283 139.361 381.241 139.122 381.263 138.803L381.326 137.909C381.348 137.59 381.423 137.365 381.55 137.235C381.688 137.095 381.927 137.037 382.268 137.061L390.695 137.653C391.036 137.677 391.259 137.768 391.366 137.925C391.484 138.072 391.531 138.305 391.509 138.625L391.446 139.518C391.424 139.838 391.343 140.067 391.205 140.207C391.079 140.337 390.845 140.39 390.504 140.367L388.206 140.205L387.698 147.435C387.676 147.744 387.586 147.967 387.426 148.106C387.278 148.245 387.022 148.302 386.661 148.277L384.761 148.143Z" fill="white"/>
<rect x="393.139" y="172" width="55.7126" height="48.9969" rx="6" transform="rotate(14.3447 393.139 172)" fill="#78B2F1"/>
<path d="M399.715 209.763C397.33 209.154 395.524 208.101 394.296 206.606C394.133 206.404 394.075 206.21 394.123 206.025C394.161 205.874 394.29 205.684 394.51 205.454L396.324 203.609C396.56 203.384 396.771 203.294 396.956 203.342C397.073 203.372 397.222 203.49 397.402 203.697C398.053 204.508 398.748 205.008 399.487 205.197C400.629 205.489 401.34 205.089 401.619 203.997L404.228 193.796C404.352 193.309 404.554 192.976 404.832 192.796C405.127 192.621 405.552 192.605 406.106 192.746L409.104 193.513C409.675 193.659 410.039 193.877 410.197 194.168C410.377 194.447 410.402 194.838 410.273 195.342L407.651 205.594C407.196 207.374 406.279 208.651 404.9 209.426C403.526 210.183 401.797 210.296 399.715 209.763ZM418.793 214.642C417.265 214.251 415.887 213.729 414.658 213.075C413.43 212.421 412.486 211.705 411.826 210.928C411.55 210.607 411.44 210.338 411.496 210.119C411.535 209.968 411.634 209.824 411.795 209.686L413.842 207.767C414.049 207.588 414.228 207.517 414.379 207.556C414.513 207.59 414.658 207.69 414.813 207.854C415.323 208.379 415.936 208.848 416.653 209.264C417.39 209.668 418.129 209.964 418.868 210.153C419.489 210.312 419.955 210.342 420.267 210.242C420.595 210.147 420.805 209.924 420.895 209.571C420.994 209.185 420.888 208.827 420.579 208.497C420.27 208.168 419.707 207.711 418.89 207.126C417.362 206.037 416.215 204.957 415.452 203.885C414.693 202.796 414.489 201.564 414.841 200.187C415.288 198.44 416.227 197.285 417.66 196.721C419.113 196.144 420.873 196.12 422.938 196.648C424.382 197.018 425.576 197.457 426.519 197.967C427.479 198.48 428.268 199.103 428.887 199.833C429.162 200.154 429.272 200.424 429.216 200.642C429.178 200.793 429.078 200.938 428.918 201.076L426.871 202.994C426.659 203.191 426.478 203.27 426.327 203.231C426.226 203.205 426.084 203.097 425.9 202.907C425.566 202.535 425.143 202.195 424.632 201.885C424.125 201.559 423.552 201.314 422.914 201.151C422.326 201 421.86 200.971 421.515 201.061C421.169 201.152 420.95 201.382 420.855 201.751C420.778 202.054 420.814 202.331 420.964 202.584C421.131 202.842 421.354 203.087 421.635 203.319C421.92 203.535 422.416 203.904 423.123 204.425C424.254 205.25 425.12 205.991 425.722 206.646C426.328 207.284 426.732 207.978 426.934 208.727C427.141 209.46 427.117 210.321 426.864 211.312C426.477 212.823 425.593 213.903 424.21 214.552C422.849 215.188 421.043 215.218 418.793 214.642Z" fill="white"/>
<rect x="331.955" y="17.2581" width="92.7142" height="60.0535" rx="6" transform="rotate(11.3435 331.955 17.2581)" fill="#78B2F1"/>
<path d="M347.008 63.1875C343.439 62.4716 340.839 61.0423 339.209 58.8998C337.582 56.7376 337.115 53.9309 337.808 50.4797C338.504 47.0089 339.978 44.5916 342.231 43.228C344.502 41.8682 347.413 41.5444 350.962 42.2564C352.57 42.579 353.97 43.023 355.162 43.5885C356.354 44.154 357.315 44.8057 358.044 45.5435C358.244 45.7672 358.322 45.9869 358.279 46.2026C358.244 46.3791 358.106 46.6065 357.867 46.8849L355.889 49.1194C355.677 49.3625 355.463 49.4624 355.247 49.4191C355.11 49.3916 354.9 49.2679 354.618 49.0481C354.124 48.6634 353.589 48.3317 353.012 48.0528C352.455 47.778 351.775 47.5599 350.971 47.3986C349.343 47.0721 348.004 47.2929 346.952 48.0611C345.9 48.8292 345.196 50.1055 344.838 51.89C344.484 53.6548 344.681 55.1121 345.429 56.2617C346.182 57.3918 347.372 58.1201 348.999 58.4466C350.411 58.7298 351.764 58.6953 353.059 58.3431C353.404 58.2492 353.645 58.216 353.783 58.2435C353.998 58.2868 354.157 58.4614 354.259 58.7674L355.222 61.592C355.336 61.9412 355.375 62.204 355.339 62.3805C355.296 62.5962 355.139 62.7687 354.868 62.898C353.911 63.2975 352.764 63.5263 351.426 63.5843C350.089 63.6424 348.616 63.5101 347.008 63.1875ZM369.147 67.6288C367.362 67.2708 365.743 66.7521 364.288 66.0727C362.833 65.3933 361.702 64.6258 360.895 63.7703C360.557 63.4171 360.414 63.113 360.466 62.8581C360.501 62.6816 360.607 62.5091 360.784 62.3405L363.027 60.0061C363.254 59.7866 363.456 59.6945 363.633 59.7299C363.79 59.7614 363.962 59.8674 364.15 60.0479C364.77 60.621 365.505 61.1254 366.356 61.5613C367.23 61.9815 368.099 62.2781 368.962 62.4512C369.687 62.5968 370.226 62.603 370.58 62.4698C370.952 62.3406 371.18 62.0701 371.262 61.6583C371.353 61.2073 371.21 60.8012 370.834 60.4402C370.457 60.0791 369.781 59.5864 368.805 58.9622C366.978 57.8001 365.592 56.6246 364.647 55.4356C363.707 54.2269 363.398 52.8186 363.72 51.2107C364.129 49.1713 365.142 47.7834 366.758 47.047C368.398 46.2948 370.424 46.1607 372.836 46.6446C374.523 46.9829 375.925 47.4171 377.042 47.9473C378.179 48.4814 379.126 49.1507 379.883 49.9552C380.22 50.3084 380.363 50.6125 380.312 50.8674C380.276 51.0439 380.17 51.2164 379.994 51.3849L377.751 53.7194C377.519 53.9585 377.315 54.0604 377.139 54.025C377.021 54.0014 376.85 53.8856 376.627 53.6775C376.219 53.2694 375.712 52.9023 375.104 52.5764C374.5 52.2309 373.825 51.9834 373.08 51.8339C372.394 51.6962 371.855 51.69 371.462 51.8153C371.07 51.9406 370.831 52.219 370.744 52.6504C370.673 53.0033 370.732 53.3211 370.92 53.6036C371.128 53.89 371.4 54.1589 371.737 54.4101C372.079 54.6417 372.673 55.0363 373.519 55.5937C374.872 56.477 375.915 57.2778 376.648 57.996C377.385 58.6946 377.892 59.4696 378.17 60.3209C378.452 61.1526 378.477 62.1469 378.245 63.3039C377.891 65.0687 376.937 66.3664 375.384 67.1971C373.853 68.012 371.774 68.1559 369.147 67.6288ZM390.327 71.8778C388.543 71.5198 386.923 71.0011 385.468 70.3217C384.014 69.6423 382.882 68.8748 382.075 68.0192C381.738 67.666 381.595 67.362 381.646 67.107C381.681 66.9306 381.787 66.758 381.964 66.5895L384.207 64.2551C384.435 64.0355 384.637 63.9435 384.813 63.9789C384.97 64.0104 385.142 64.1164 385.331 64.2969C385.95 64.8699 386.685 65.3744 387.536 65.8102C388.41 66.2304 389.279 66.5271 390.142 66.7002C390.867 66.8457 391.407 66.8519 391.76 66.7188C392.133 66.5896 392.36 66.3191 392.443 65.9073C392.533 65.4562 392.39 65.0502 392.014 64.6891C391.638 64.328 390.961 63.8354 389.985 63.2112C388.158 62.0491 386.772 60.8736 385.828 59.6845C384.887 58.4759 384.578 57.0676 384.9 55.4597C385.31 53.4203 386.322 52.0324 387.939 51.2959C389.579 50.5438 391.605 50.4097 394.017 50.8935C395.703 51.2318 397.105 51.6661 398.223 52.1962C399.36 52.7303 400.307 53.3996 401.063 54.2042C401.4 54.5574 401.543 54.8614 401.492 55.1164C401.457 55.2928 401.351 55.4654 401.174 55.6339L398.931 57.9683C398.7 58.2075 398.496 58.3093 398.319 58.2739C398.201 58.2503 398.031 58.1345 397.807 57.9265C397.4 57.5183 396.892 57.1513 396.284 56.8254C395.68 56.4799 395.006 56.2324 394.261 56.0829C393.574 55.9452 393.035 55.939 392.643 56.0643C392.25 56.1896 392.011 56.4679 391.924 56.8993C391.854 57.2523 391.912 57.57 392.1 57.8526C392.308 58.139 392.581 58.4079 392.918 58.6591C393.259 58.8907 393.853 59.2852 394.7 59.8427C396.052 60.726 397.095 61.5268 397.828 62.245C398.565 62.9436 399.073 63.7186 399.351 64.5699C399.633 65.4016 399.658 66.3959 399.426 67.5528C399.072 69.3177 398.118 70.6154 396.564 71.446C395.034 72.261 392.955 72.4049 390.327 71.8778Z" fill="white"/>
<rect x="62.8354" y="84" width="97" height="51" rx="6" transform="rotate(3.18712 62.8354 84)" fill="#78B2F1"/>
<path d="M74.2046 118.686C73.6774 118.656 73.3082 118.524 73.097 118.288C72.9018 118.052 72.8171 117.703 72.8429 117.24L73.5981 103.677C73.6239 103.214 73.7469 102.876 73.967 102.664C74.2031 102.453 74.5848 102.362 75.112 102.391L77.9635 102.55C78.5067 102.58 78.8759 102.713 79.0711 102.948C79.2832 103.168 79.3759 103.518 79.3492 103.997L79.085 108.742L83.3504 108.979L83.6146 104.235C83.6404 103.771 83.7634 103.434 83.9835 103.222C84.2196 103.01 84.6013 102.919 85.1284 102.949L87.98 103.108C88.5232 103.138 88.8924 103.271 89.0876 103.506C89.2997 103.726 89.3924 104.076 89.3657 104.555L88.6105 118.118C88.5847 118.581 88.4537 118.918 88.2176 119.13C87.9975 119.342 87.6158 119.433 87.0727 119.402L84.2211 119.243C83.6939 119.214 83.3247 119.081 83.1135 118.845C82.9183 118.61 82.8336 118.261 82.8594 117.798L83.1236 113.053L78.8582 112.815L78.594 117.56C78.5682 118.023 78.4372 118.361 78.2011 118.572C77.981 118.784 77.5994 118.875 77.0562 118.845L74.2046 118.686ZM98.8034 120.055C98.2763 120.026 97.9071 119.893 97.6959 119.657C97.5007 119.422 97.4159 119.073 97.4417 118.61L98.0462 107.754L94.5955 107.562C94.0843 107.534 93.7386 107.41 93.5585 107.192C93.3952 106.959 93.3269 106.602 93.3536 106.123L93.4284 104.781C93.455 104.302 93.562 103.963 93.7493 103.765C93.9535 103.552 94.3112 103.46 94.8224 103.489L107.475 104.193C107.986 104.222 108.323 104.352 108.486 104.586C108.667 104.804 108.743 105.153 108.717 105.632L108.642 106.974C108.615 107.454 108.5 107.8 108.296 108.013C108.108 108.21 107.759 108.295 107.248 108.267L103.797 108.075L103.193 118.93C103.167 119.393 103.036 119.73 102.8 119.942C102.58 120.154 102.198 120.245 101.655 120.214L98.8034 120.055ZM113.044 120.848C112.517 120.819 112.148 120.686 111.937 120.45C111.741 120.215 111.657 119.866 111.682 119.403L112.439 105.816C112.465 105.352 112.587 105.023 112.807 104.826C113.043 104.615 113.432 104.525 113.975 104.555L116.731 104.708C117.083 104.728 117.36 104.792 117.562 104.899C117.765 104.99 117.916 105.167 118.013 105.429L120.426 112.606L123.62 105.741C123.746 105.492 123.916 105.333 124.128 105.265C124.341 105.18 124.623 105.148 124.974 105.167L127.73 105.321C128.273 105.351 128.642 105.484 128.838 105.719C129.05 105.939 129.143 106.281 129.117 106.744L128.361 120.331C128.335 120.794 128.204 121.132 127.968 121.343C127.748 121.555 127.374 121.646 126.847 121.617L124.546 121.489C124.019 121.46 123.65 121.327 123.439 121.091C123.228 120.855 123.135 120.505 123.161 120.042L123.525 113.5L121.93 116.68C121.712 117.133 121.486 117.457 121.251 117.652C121.016 117.831 120.643 117.906 120.132 117.878C119.621 117.849 119.259 117.733 119.046 117.529C118.834 117.309 118.645 116.962 118.479 116.488L117.247 113.15L116.882 119.692C116.857 120.155 116.726 120.493 116.49 120.704C116.269 120.916 115.888 121.007 115.345 120.977L113.044 120.848ZM134.746 122.057C134.218 122.028 133.849 121.895 133.638 121.659C133.443 121.423 133.358 121.074 133.384 120.611L134.139 107.048C134.165 106.585 134.288 106.247 134.508 106.035C134.744 105.824 135.126 105.733 135.653 105.762L138.504 105.921C139.048 105.951 139.417 106.084 139.612 106.319C139.824 106.539 139.917 106.889 139.89 107.368L139.286 118.223L144.869 118.534C145.38 118.563 145.717 118.694 145.881 118.927C146.061 119.145 146.138 119.494 146.111 119.974L146.036 121.315C146.01 121.795 145.894 122.141 145.69 122.354C145.503 122.552 145.153 122.636 144.642 122.608L134.746 122.057Z" fill="white"/>
</g>
<defs>
<clipPath id="clip0_3_161">
<rect width="454" height="445" fill="white"/>
</clipPath>
</defs>
</svg>
